{
	"patcher" : 	{
		"fileversion" : 1,
		"appversion" : 		{
			"major" : 5,
			"minor" : 1,
			"revision" : 9
		}
,
		"rect" : [ 2.0, 49.0, 806.0, 782.0 ],
		"bglocked" : 0,
		"defrect" : [ 2.0, 49.0, 806.0, 782.0 ],
		"openrect" : [ 0.0, 0.0, 0.0, 0.0 ],
		"openinpresentation" : 0,
		"default_fontsize" : 12.0,
		"default_fontface" : 0,
		"default_fontname" : "Arial",
		"gridonopen" : 0,
		"gridsize" : [ 15.0, 15.0 ],
		"gridsnaponopen" : 0,
		"toolbarvisible" : 1,
		"boxanimatetime" : 200,
		"imprint" : 0,
		"enablehscroll" : 1,
		"enablevscroll" : 1,
		"devicewidth" : 0.0,
		"boxes" : [ 			{
				"box" : 				{
					"maxclass" : "message",
					"text" : "getPolicy",
					"numinlets" : 2,
					"numoutlets" : 1,
					"patching_rect" : [ 334.0, 111.0, 59.0, 18.0 ],
					"outlettype" : [ "" ],
					"id" : "obj-29",
					"fontname" : "Arial",
					"fontsize" : 12.0
				}

			}
, 			{
				"box" : 				{
					"maxclass" : "message",
					"text" : "getAction",
					"numinlets" : 2,
					"numoutlets" : 1,
					"patching_rect" : [ 225.0, 109.0, 61.0, 18.0 ],
					"outlettype" : [ "" ],
					"id" : "obj-27",
					"fontname" : "Arial",
					"fontsize" : 12.0
				}

			}
, 			{
				"box" : 				{
					"maxclass" : "newobj",
					"text" : "p action-playNotes",
					"numinlets" : 1,
					"numoutlets" : 1,
					"patching_rect" : [ 264.0, 219.0, 113.0, 20.0 ],
					"outlettype" : [ "" ],
					"id" : "obj-112",
					"fontname" : "Arial",
					"fontsize" : 12.0,
					"patcher" : 					{
						"fileversion" : 1,
						"appversion" : 						{
							"major" : 5,
							"minor" : 1,
							"revision" : 9
						}
,
						"rect" : [ 25.0, 69.0, 777.0, 707.0 ],
						"bglocked" : 0,
						"defrect" : [ 25.0, 69.0, 777.0, 707.0 ],
						"openrect" : [ 0.0, 0.0, 0.0, 0.0 ],
						"openinpresentation" : 0,
						"default_fontsize" : 12.0,
						"default_fontface" : 0,
						"default_fontname" : "Arial",
						"gridonopen" : 0,
						"gridsize" : [ 15.0, 15.0 ],
						"gridsnaponopen" : 0,
						"toolbarvisible" : 1,
						"boxanimatetime" : 200,
						"imprint" : 0,
						"enablehscroll" : 1,
						"enablevscroll" : 1,
						"devicewidth" : 0.0,
						"boxes" : [ 							{
								"box" : 								{
									"maxclass" : "newobj",
									"text" : "loadmess 1",
									"numinlets" : 1,
									"numoutlets" : 1,
									"patching_rect" : [ 275.0, 65.0, 72.0, 20.0 ],
									"outlettype" : [ "" ],
									"id" : "obj-2",
									"fontname" : "Arial",
									"fontsize" : 12.0
								}

							}
, 							{
								"box" : 								{
									"maxclass" : "outlet",
									"numinlets" : 1,
									"numoutlets" : 0,
									"patching_rect" : [ 318.0, 605.0, 25.0, 25.0 ],
									"id" : "obj-1",
									"comment" : ""
								}

							}
, 							{
								"box" : 								{
									"maxclass" : "newobj",
									"text" : "loadbang",
									"numinlets" : 1,
									"numoutlets" : 1,
									"patching_rect" : [ 211.0, 401.0, 60.0, 20.0 ],
									"outlettype" : [ "bang" ],
									"id" : "obj-106",
									"fontname" : "Arial",
									"fontsize" : 12.0
								}

							}
, 							{
								"box" : 								{
									"maxclass" : "message",
									"text" : "1500",
									"numinlets" : 2,
									"numoutlets" : 1,
									"patching_rect" : [ 212.0, 438.0, 37.0, 18.0 ],
									"outlettype" : [ "" ],
									"id" : "obj-107",
									"fontname" : "Arial",
									"fontsize" : 12.0
								}

							}
, 							{
								"box" : 								{
									"maxclass" : "newobj",
									"text" : "delay",
									"numinlets" : 2,
									"numoutlets" : 1,
									"patching_rect" : [ 189.0, 481.0, 39.0, 20.0 ],
									"outlettype" : [ "bang" ],
									"id" : "obj-108",
									"fontname" : "Arial",
									"fontsize" : 12.0
								}

							}
, 							{
								"box" : 								{
									"maxclass" : "newobj",
									"text" : "loadbang",
									"numinlets" : 1,
									"numoutlets" : 1,
									"patching_rect" : [ 143.0, 374.0, 60.0, 20.0 ],
									"outlettype" : [ "bang" ],
									"id" : "obj-103",
									"fontname" : "Arial",
									"fontsize" : 12.0
								}

							}
, 							{
								"box" : 								{
									"maxclass" : "message",
									"text" : "1000",
									"numinlets" : 2,
									"numoutlets" : 1,
									"patching_rect" : [ 144.0, 411.0, 37.0, 18.0 ],
									"outlettype" : [ "" ],
									"id" : "obj-104",
									"fontname" : "Arial",
									"fontsize" : 12.0
								}

							}
, 							{
								"box" : 								{
									"maxclass" : "newobj",
									"text" : "delay",
									"numinlets" : 2,
									"numoutlets" : 1,
									"patching_rect" : [ 121.0, 454.0, 39.0, 20.0 ],
									"outlettype" : [ "bang" ],
									"id" : "obj-105",
									"fontname" : "Arial",
									"fontsize" : 12.0
								}

							}
, 							{
								"box" : 								{
									"maxclass" : "newobj",
									"text" : "fromsymbol",
									"numinlets" : 1,
									"numoutlets" : 1,
									"patching_rect" : [ 437.0, 411.0, 73.0, 20.0 ],
									"outlettype" : [ "" ],
									"id" : "obj-102",
									"fontname" : "Arial",
									"fontsize" : 12.0
								}

							}
, 							{
								"box" : 								{
									"maxclass" : "newobj",
									"text" : "fromsymbol",
									"numinlets" : 1,
									"numoutlets" : 1,
									"patching_rect" : [ 349.0, 375.0, 73.0, 20.0 ],
									"outlettype" : [ "" ],
									"id" : "obj-101",
									"fontname" : "Arial",
									"fontsize" : 12.0
								}

							}
, 							{
								"box" : 								{
									"maxclass" : "newobj",
									"text" : "fromsymbol",
									"numinlets" : 1,
									"numoutlets" : 1,
									"patching_rect" : [ 260.0, 331.0, 73.0, 20.0 ],
									"outlettype" : [ "" ],
									"id" : "obj-100",
									"fontname" : "Arial",
									"fontsize" : 12.0
								}

							}
, 							{
								"box" : 								{
									"maxclass" : "message",
									"text" : "\"65\"",
									"numinlets" : 2,
									"numoutlets" : 1,
									"patching_rect" : [ 441.0, 349.0, 50.0, 18.0 ],
									"outlettype" : [ "" ],
									"id" : "obj-97",
									"fontname" : "Arial",
									"fontsize" : 12.0
								}

							}
, 							{
								"box" : 								{
									"maxclass" : "message",
									"text" : "\"67\"",
									"numinlets" : 2,
									"numoutlets" : 1,
									"patching_rect" : [ 358.0, 315.0, 50.0, 18.0 ],
									"outlettype" : [ "" ],
									"id" : "obj-96",
									"fontname" : "Arial",
									"fontsize" : 12.0
								}

							}
, 							{
								"box" : 								{
									"maxclass" : "message",
									"text" : "\"60\"",
									"numinlets" : 2,
									"numoutlets" : 1,
									"patching_rect" : [ 287.0, 281.0, 50.0, 18.0 ],
									"outlettype" : [ "" ],
									"id" : "obj-95",
									"fontname" : "Arial",
									"fontsize" : 12.0
								}

							}
, 							{
								"box" : 								{
									"maxclass" : "number",
									"numinlets" : 1,
									"numoutlets" : 2,
									"patching_rect" : [ 448.0, 219.0, 50.0, 20.0 ],
									"outlettype" : [ "int", "bang" ],
									"id" : "obj-93",
									"fontname" : "Arial",
									"fontsize" : 12.0
								}

							}
, 							{
								"box" : 								{
									"maxclass" : "newobj",
									"text" : "zl nth",
									"numinlets" : 2,
									"numoutlets" : 2,
									"patching_rect" : [ 430.0, 292.0, 39.0, 20.0 ],
									"outlettype" : [ "", "" ],
									"id" : "obj-94",
									"fontname" : "Arial",
									"fontsize" : 12.0
								}

							}
, 							{
								"box" : 								{
									"maxclass" : "number",
									"numinlets" : 1,
									"numoutlets" : 2,
									"patching_rect" : [ 378.0, 196.0, 50.0, 20.0 ],
									"outlettype" : [ "int", "bang" ],
									"id" : "obj-91",
									"fontname" : "Arial",
									"fontsize" : 12.0
								}

							}
, 							{
								"box" : 								{
									"maxclass" : "newobj",
									"text" : "zl nth",
									"numinlets" : 2,
									"numoutlets" : 2,
									"patching_rect" : [ 366.0, 263.0, 39.0, 20.0 ],
									"outlettype" : [ "", "" ],
									"id" : "obj-92",
									"fontname" : "Arial",
									"fontsize" : 12.0
								}

							}
, 							{
								"box" : 								{
									"maxclass" : "number",
									"numinlets" : 1,
									"numoutlets" : 2,
									"patching_rect" : [ 310.0, 173.0, 50.0, 20.0 ],
									"outlettype" : [ "int", "bang" ],
									"id" : "obj-89",
									"fontname" : "Arial",
									"fontsize" : 12.0
								}

							}
, 							{
								"box" : 								{
									"maxclass" : "newobj",
									"text" : "zl nth",
									"numinlets" : 2,
									"numoutlets" : 2,
									"patching_rect" : [ 302.0, 223.0, 39.0, 20.0 ],
									"outlettype" : [ "", "" ],
									"id" : "obj-90",
									"fontname" : "Arial",
									"fontsize" : 12.0
								}

							}
, 							{
								"box" : 								{
									"maxclass" : "number",
									"numinlets" : 1,
									"numoutlets" : 2,
									"patching_rect" : [ 251.0, 101.0, 50.0, 20.0 ],
									"outlettype" : [ "int", "bang" ],
									"id" : "obj-86",
									"fontname" : "Arial",
									"fontsize" : 12.0
								}

							}
, 							{
								"box" : 								{
									"maxclass" : "newobj",
									"text" : "loadbang",
									"numinlets" : 1,
									"numoutlets" : 1,
									"patching_rect" : [ 82.0, 338.0, 60.0, 20.0 ],
									"outlettype" : [ "bang" ],
									"id" : "obj-62",
									"fontname" : "Arial",
									"fontsize" : 12.0
								}

							}
, 							{
								"box" : 								{
									"maxclass" : "message",
									"text" : "500",
									"numinlets" : 2,
									"numoutlets" : 1,
									"patching_rect" : [ 83.0, 375.0, 32.5, 18.0 ],
									"outlettype" : [ "" ],
									"id" : "obj-63",
									"fontname" : "Arial",
									"fontsize" : 12.0
								}

							}
, 							{
								"box" : 								{
									"maxclass" : "newobj",
									"text" : "delay",
									"numinlets" : 2,
									"numoutlets" : 1,
									"patching_rect" : [ 60.0, 418.0, 39.0, 20.0 ],
									"outlettype" : [ "bang" ],
									"id" : "obj-61",
									"fontname" : "Arial",
									"fontsize" : 12.0
								}

							}
, 							{
								"box" : 								{
									"maxclass" : "button",
									"numinlets" : 1,
									"numoutlets" : 1,
									"patching_rect" : [ 50.0, 328.0, 20.0, 20.0 ],
									"outlettype" : [ "bang" ],
									"id" : "obj-58"
								}

							}
, 							{
								"box" : 								{
									"maxclass" : "newobj",
									"text" : "select /action",
									"numinlets" : 1,
									"numoutlets" : 2,
									"patching_rect" : [ 59.0, 279.0, 81.0, 20.0 ],
									"outlettype" : [ "bang", "" ],
									"id" : "obj-56",
									"fontname" : "Arial",
									"fontsize" : 12.0
								}

							}
, 							{
								"box" : 								{
									"maxclass" : "message",
									"text" : "/action",
									"numinlets" : 2,
									"numoutlets" : 1,
									"patching_rect" : [ 132.0, 249.0, 51.0, 18.0 ],
									"outlettype" : [ "" ],
									"id" : "obj-52",
									"fontname" : "Arial",
									"fontsize" : 12.0
								}

							}
, 							{
								"box" : 								{
									"maxclass" : "newobj",
									"text" : "fromsymbol",
									"numinlets" : 1,
									"numoutlets" : 1,
									"patching_rect" : [ 59.0, 213.0, 73.0, 20.0 ],
									"outlettype" : [ "" ],
									"id" : "obj-39",
									"fontname" : "Arial",
									"fontsize" : 12.0
								}

							}
, 							{
								"box" : 								{
									"maxclass" : "message",
									"text" : "/action",
									"numinlets" : 2,
									"numoutlets" : 1,
									"patching_rect" : [ 217.0, 223.0, 51.0, 18.0 ],
									"outlettype" : [ "" ],
									"id" : "obj-38",
									"fontname" : "Arial",
									"fontsize" : 12.0
								}

							}
, 							{
								"box" : 								{
									"maxclass" : "newobj",
									"text" : "zl nth",
									"numinlets" : 2,
									"numoutlets" : 2,
									"patching_rect" : [ 228.0, 150.0, 39.0, 20.0 ],
									"outlettype" : [ "", "" ],
									"id" : "obj-34",
									"fontname" : "Arial",
									"fontsize" : 12.0
								}

							}
, 							{
								"box" : 								{
									"maxclass" : "inlet",
									"numinlets" : 0,
									"numoutlets" : 1,
									"patching_rect" : [ 228.0, 40.0, 25.0, 25.0 ],
									"outlettype" : [ "" ],
									"id" : "obj-111",
									"comment" : ""
								}

							}
 ],
						"lines" : [ 							{
								"patchline" : 								{
									"source" : [ "obj-2", 0 ],
									"destination" : [ "obj-93", 0 ],
									"hidden" : 0,
									"midpoints" : [  ]
								}

							}
, 							{
								"patchline" : 								{
									"source" : [ "obj-2", 0 ],
									"destination" : [ "obj-91", 0 ],
									"hidden" : 0,
									"midpoints" : [  ]
								}

							}
, 							{
								"patchline" : 								{
									"source" : [ "obj-2", 0 ],
									"destination" : [ "obj-89", 0 ],
									"hidden" : 0,
									"midpoints" : [  ]
								}

							}
, 							{
								"patchline" : 								{
									"source" : [ "obj-2", 0 ],
									"destination" : [ "obj-86", 0 ],
									"hidden" : 0,
									"midpoints" : [  ]
								}

							}
, 							{
								"patchline" : 								{
									"source" : [ "obj-102", 0 ],
									"destination" : [ "obj-1", 0 ],
									"hidden" : 0,
									"midpoints" : [  ]
								}

							}
, 							{
								"patchline" : 								{
									"source" : [ "obj-101", 0 ],
									"destination" : [ "obj-1", 0 ],
									"hidden" : 0,
									"midpoints" : [  ]
								}

							}
, 							{
								"patchline" : 								{
									"source" : [ "obj-100", 0 ],
									"destination" : [ "obj-1", 0 ],
									"hidden" : 0,
									"midpoints" : [  ]
								}

							}
, 							{
								"patchline" : 								{
									"source" : [ "obj-34", 0 ],
									"destination" : [ "obj-38", 1 ],
									"hidden" : 0,
									"midpoints" : [  ]
								}

							}
, 							{
								"patchline" : 								{
									"source" : [ "obj-34", 0 ],
									"destination" : [ "obj-39", 0 ],
									"hidden" : 0,
									"midpoints" : [  ]
								}

							}
, 							{
								"patchline" : 								{
									"source" : [ "obj-39", 0 ],
									"destination" : [ "obj-52", 1 ],
									"hidden" : 0,
									"midpoints" : [  ]
								}

							}
, 							{
								"patchline" : 								{
									"source" : [ "obj-56", 0 ],
									"destination" : [ "obj-58", 0 ],
									"hidden" : 0,
									"midpoints" : [  ]
								}

							}
, 							{
								"patchline" : 								{
									"source" : [ "obj-39", 0 ],
									"destination" : [ "obj-56", 0 ],
									"hidden" : 0,
									"midpoints" : [  ]
								}

							}
, 							{
								"patchline" : 								{
									"source" : [ "obj-62", 0 ],
									"destination" : [ "obj-63", 0 ],
									"hidden" : 0,
									"midpoints" : [  ]
								}

							}
, 							{
								"patchline" : 								{
									"source" : [ "obj-63", 0 ],
									"destination" : [ "obj-61", 1 ],
									"hidden" : 0,
									"midpoints" : [  ]
								}

							}
, 							{
								"patchline" : 								{
									"source" : [ "obj-58", 0 ],
									"destination" : [ "obj-61", 0 ],
									"hidden" : 0,
									"midpoints" : [  ]
								}

							}
, 							{
								"patchline" : 								{
									"source" : [ "obj-86", 0 ],
									"destination" : [ "obj-34", 1 ],
									"hidden" : 0,
									"midpoints" : [  ]
								}

							}
, 							{
								"patchline" : 								{
									"source" : [ "obj-89", 0 ],
									"destination" : [ "obj-90", 1 ],
									"hidden" : 0,
									"midpoints" : [  ]
								}

							}
, 							{
								"patchline" : 								{
									"source" : [ "obj-91", 0 ],
									"destination" : [ "obj-92", 1 ],
									"hidden" : 0,
									"midpoints" : [  ]
								}

							}
, 							{
								"patchline" : 								{
									"source" : [ "obj-34", 1 ],
									"destination" : [ "obj-90", 0 ],
									"hidden" : 0,
									"midpoints" : [  ]
								}

							}
, 							{
								"patchline" : 								{
									"source" : [ "obj-93", 0 ],
									"destination" : [ "obj-94", 1 ],
									"hidden" : 0,
									"midpoints" : [  ]
								}

							}
, 							{
								"patchline" : 								{
									"source" : [ "obj-90", 1 ],
									"destination" : [ "obj-92", 0 ],
									"hidden" : 0,
									"midpoints" : [  ]
								}

							}
, 							{
								"patchline" : 								{
									"source" : [ "obj-92", 1 ],
									"destination" : [ "obj-94", 0 ],
									"hidden" : 0,
									"midpoints" : [  ]
								}

							}
, 							{
								"patchline" : 								{
									"source" : [ "obj-90", 0 ],
									"destination" : [ "obj-95", 1 ],
									"hidden" : 0,
									"midpoints" : [  ]
								}

							}
, 							{
								"patchline" : 								{
									"source" : [ "obj-92", 0 ],
									"destination" : [ "obj-96", 1 ],
									"hidden" : 0,
									"midpoints" : [  ]
								}

							}
, 							{
								"patchline" : 								{
									"source" : [ "obj-94", 0 ],
									"destination" : [ "obj-97", 1 ],
									"hidden" : 0,
									"midpoints" : [  ]
								}

							}
, 							{
								"patchline" : 								{
									"source" : [ "obj-95", 0 ],
									"destination" : [ "obj-100", 0 ],
									"hidden" : 0,
									"midpoints" : [  ]
								}

							}
, 							{
								"patchline" : 								{
									"source" : [ "obj-96", 0 ],
									"destination" : [ "obj-101", 0 ],
									"hidden" : 0,
									"midpoints" : [  ]
								}

							}
, 							{
								"patchline" : 								{
									"source" : [ "obj-97", 0 ],
									"destination" : [ "obj-102", 0 ],
									"hidden" : 0,
									"midpoints" : [  ]
								}

							}
, 							{
								"patchline" : 								{
									"source" : [ "obj-104", 0 ],
									"destination" : [ "obj-105", 1 ],
									"hidden" : 0,
									"midpoints" : [  ]
								}

							}
, 							{
								"patchline" : 								{
									"source" : [ "obj-103", 0 ],
									"destination" : [ "obj-104", 0 ],
									"hidden" : 0,
									"midpoints" : [  ]
								}

							}
, 							{
								"patchline" : 								{
									"source" : [ "obj-106", 0 ],
									"destination" : [ "obj-107", 0 ],
									"hidden" : 0,
									"midpoints" : [  ]
								}

							}
, 							{
								"patchline" : 								{
									"source" : [ "obj-107", 0 ],
									"destination" : [ "obj-108", 1 ],
									"hidden" : 0,
									"midpoints" : [  ]
								}

							}
, 							{
								"patchline" : 								{
									"source" : [ "obj-58", 0 ],
									"destination" : [ "obj-105", 0 ],
									"hidden" : 0,
									"midpoints" : [  ]
								}

							}
, 							{
								"patchline" : 								{
									"source" : [ "obj-58", 0 ],
									"destination" : [ "obj-108", 0 ],
									"hidden" : 0,
									"midpoints" : [  ]
								}

							}
, 							{
								"patchline" : 								{
									"source" : [ "obj-61", 0 ],
									"destination" : [ "obj-95", 0 ],
									"hidden" : 0,
									"midpoints" : [  ]
								}

							}
, 							{
								"patchline" : 								{
									"source" : [ "obj-105", 0 ],
									"destination" : [ "obj-96", 0 ],
									"hidden" : 0,
									"midpoints" : [  ]
								}

							}
, 							{
								"patchline" : 								{
									"source" : [ "obj-108", 0 ],
									"destination" : [ "obj-97", 0 ],
									"hidden" : 0,
									"midpoints" : [  ]
								}

							}
, 							{
								"patchline" : 								{
									"source" : [ "obj-111", 0 ],
									"destination" : [ "obj-34", 0 ],
									"hidden" : 0,
									"midpoints" : [  ]
								}

							}
 ]
					}
,
					"saved_object_attributes" : 					{
						"default_fontname" : "Arial",
						"default_fontsize" : 12.0,
						"fontname" : "Arial",
						"globalpatchername" : "",
						"default_fontface" : 0,
						"fontface" : 0,
						"fontsize" : 12.0
					}

				}

			}
, 			{
				"box" : 				{
					"maxclass" : "flonum",
					"numinlets" : 1,
					"numoutlets" : 2,
					"patching_rect" : [ 514.0, 369.0, 50.0, 20.0 ],
					"outlettype" : [ "float", "bang" ],
					"id" : "obj-30",
					"fontname" : "Arial",
					"fontsize" : 12.0
				}

			}
, 			{
				"box" : 				{
					"maxclass" : "newobj",
					"text" : "cos~",
					"numinlets" : 1,
					"numoutlets" : 1,
					"patching_rect" : [ 389.0, 476.0, 36.0, 20.0 ],
					"outlettype" : [ "signal" ],
					"id" : "obj-25",
					"fontname" : "Arial",
					"fontsize" : 12.0
				}

			}
, 			{
				"box" : 				{
					"maxclass" : "newobj",
					"text" : "*~",
					"numinlets" : 2,
					"numoutlets" : 1,
					"patching_rect" : [ 385.0, 433.0, 32.5, 20.0 ],
					"outlettype" : [ "signal" ],
					"id" : "obj-18",
					"fontname" : "Arial",
					"fontsize" : 12.0
				}

			}
, 			{
				"box" : 				{
					"maxclass" : "message",
					"text" : "65",
					"numinlets" : 2,
					"numoutlets" : 1,
					"patching_rect" : [ 254.0, 380.0, 50.0, 18.0 ],
					"outlettype" : [ "" ],
					"id" : "obj-14",
					"fontname" : "Arial",
					"fontsize" : 12.0
				}

			}
, 			{
				"box" : 				{
					"maxclass" : "newobj",
					"text" : "p nextState",
					"numinlets" : 1,
					"numoutlets" : 1,
					"patching_rect" : [ 29.0, 231.0, 75.0, 20.0 ],
					"outlettype" : [ "int" ],
					"id" : "obj-23",
					"fontname" : "Arial",
					"fontsize" : 12.0,
					"patcher" : 					{
						"fileversion" : 1,
						"appversion" : 						{
							"major" : 5,
							"minor" : 1,
							"revision" : 9
						}
,
						"rect" : [ 499.0, 113.0, 727.0, 598.0 ],
						"bglocked" : 0,
						"defrect" : [ 499.0, 113.0, 727.0, 598.0 ],
						"openrect" : [ 0.0, 0.0, 0.0, 0.0 ],
						"openinpresentation" : 0,
						"default_fontsize" : 12.0,
						"default_fontface" : 0,
						"default_fontname" : "Arial",
						"gridonopen" : 0,
						"gridsize" : [ 15.0, 15.0 ],
						"gridsnaponopen" : 0,
						"toolbarvisible" : 1,
						"boxanimatetime" : 200,
						"imprint" : 0,
						"enablehscroll" : 1,
						"enablevscroll" : 1,
						"devicewidth" : 0.0,
						"boxes" : [ 							{
								"box" : 								{
									"maxclass" : "newobj",
									"text" : "p combine-state-stuff-ulgy",
									"numinlets" : 0,
									"numoutlets" : 0,
									"patching_rect" : [ 409.0, 52.0, 148.0, 20.0 ],
									"id" : "obj-64",
									"fontname" : "Arial",
									"fontsize" : 12.0,
									"patcher" : 									{
										"fileversion" : 1,
										"appversion" : 										{
											"major" : 5,
											"minor" : 1,
											"revision" : 9
										}
,
										"rect" : [ 0.0, 0.0, 640.0, 480.0 ],
										"bglocked" : 0,
										"defrect" : [ 0.0, 0.0, 640.0, 480.0 ],
										"openrect" : [ 0.0, 0.0, 0.0, 0.0 ],
										"openinpresentation" : 0,
										"default_fontsize" : 12.0,
										"default_fontface" : 0,
										"default_fontname" : "Arial",
										"gridonopen" : 0,
										"gridsize" : [ 15.0, 15.0 ],
										"gridsnaponopen" : 0,
										"toolbarvisible" : 1,
										"boxanimatetime" : 200,
										"imprint" : 0,
										"enablehscroll" : 1,
										"enablevscroll" : 1,
										"devicewidth" : 0.0,
										"boxes" : [ 											{
												"box" : 												{
													"maxclass" : "newobj",
													"text" : "combine ( first . second )",
													"numinlets" : 5,
													"numoutlets" : 2,
													"patching_rect" : [ 142.0, 481.0, 137.0, 20.0 ],
													"outlettype" : [ "", "" ],
													"id" : "obj-62",
													"fontname" : "Arial",
													"fontsize" : 11.595187
												}

											}
, 											{
												"box" : 												{
													"maxclass" : "message",
													"text" : "1",
													"numinlets" : 2,
													"numoutlets" : 1,
													"patching_rect" : [ 96.0, 413.0, 32.5, 18.0 ],
													"outlettype" : [ "" ],
													"id" : "obj-60",
													"fontname" : "Arial",
													"fontsize" : 12.0
												}

											}
, 											{
												"box" : 												{
													"maxclass" : "message",
													"text" : "(first.second)",
													"numinlets" : 2,
													"numoutlets" : 1,
													"patching_rect" : [ 123.0, 537.0, 252.0, 18.0 ],
													"outlettype" : [ "" ],
													"id" : "obj-58",
													"fontname" : "Arial",
													"fontsize" : 12.0
												}

											}
, 											{
												"box" : 												{
													"maxclass" : "button",
													"numinlets" : 1,
													"numoutlets" : 1,
													"patching_rect" : [ 50.0, 445.0, 20.0, 20.0 ],
													"outlettype" : [ "bang" ],
													"id" : "obj-56"
												}

											}
, 											{
												"box" : 												{
													"maxclass" : "message",
													"text" : "\"1\"",
													"numinlets" : 2,
													"numoutlets" : 1,
													"patching_rect" : [ 170.0, 418.0, 50.0, 18.0 ],
													"outlettype" : [ "" ],
													"id" : "obj-54",
													"fontname" : "Arial",
													"fontsize" : 12.0
												}

											}
, 											{
												"box" : 												{
													"maxclass" : "newobj",
													"text" : "combine /(",
													"numinlets" : 1,
													"numoutlets" : 2,
													"patching_rect" : [ 144.0, 367.0, 67.0, 20.0 ],
													"outlettype" : [ "", "" ],
													"id" : "obj-52",
													"fontname" : "Arial",
													"fontsize" : 12.0
												}

											}
, 											{
												"box" : 												{
													"maxclass" : "message",
													"text" : "1 3",
													"numinlets" : 2,
													"numoutlets" : 1,
													"patching_rect" : [ 178.0, 313.0, 50.0, 18.0 ],
													"outlettype" : [ "" ],
													"id" : "obj-51",
													"fontname" : "Arial",
													"fontsize" : 12.0
												}

											}
, 											{
												"box" : 												{
													"maxclass" : "message",
													"text" : "1 3",
													"numinlets" : 2,
													"numoutlets" : 1,
													"patching_rect" : [ 187.0, 239.0, 50.0, 18.0 ],
													"outlettype" : [ "" ],
													"id" : "obj-49",
													"fontname" : "Arial",
													"fontsize" : 12.0
												}

											}
, 											{
												"box" : 												{
													"maxclass" : "newobj",
													"text" : "zl join",
													"numinlets" : 2,
													"numoutlets" : 2,
													"patching_rect" : [ 142.0, 182.0, 41.0, 20.0 ],
													"outlettype" : [ "", "" ],
													"id" : "obj-47",
													"fontname" : "Arial",
													"fontsize" : 12.0
												}

											}
, 											{
												"box" : 												{
													"maxclass" : "newobj",
													"text" : "zl reg",
													"numinlets" : 2,
													"numoutlets" : 2,
													"patching_rect" : [ 140.0, 274.0, 40.0, 20.0 ],
													"outlettype" : [ "", "" ],
													"id" : "obj-46",
													"fontname" : "Arial",
													"fontsize" : 12.0
												}

											}
, 											{
												"box" : 												{
													"maxclass" : "message",
													"text" : "1",
													"numinlets" : 2,
													"numoutlets" : 1,
													"patching_rect" : [ 113.0, 138.0, 32.5, 18.0 ],
													"outlettype" : [ "" ],
													"id" : "obj-20",
													"fontname" : "Arial",
													"fontsize" : 12.0
												}

											}
, 											{
												"box" : 												{
													"maxclass" : "message",
													"text" : "3",
													"numinlets" : 2,
													"numoutlets" : 1,
													"patching_rect" : [ 164.0, 136.0, 32.5, 18.0 ],
													"outlettype" : [ "" ],
													"id" : "obj-16",
													"fontname" : "Arial",
													"fontsize" : 12.0
												}

											}
, 											{
												"box" : 												{
													"maxclass" : "button",
													"numinlets" : 1,
													"numoutlets" : 1,
													"patching_rect" : [ 129.0, 100.0, 20.0, 20.0 ],
													"outlettype" : [ "bang" ],
													"id" : "obj-13"
												}

											}
 ],
										"lines" : [ 											{
												"patchline" : 												{
													"source" : [ "obj-13", 0 ],
													"destination" : [ "obj-16", 0 ],
													"hidden" : 0,
													"midpoints" : [  ]
												}

											}
, 											{
												"patchline" : 												{
													"source" : [ "obj-13", 0 ],
													"destination" : [ "obj-20", 0 ],
													"hidden" : 0,
													"midpoints" : [  ]
												}

											}
, 											{
												"patchline" : 												{
													"source" : [ "obj-20", 0 ],
													"destination" : [ "obj-47", 0 ],
													"hidden" : 0,
													"midpoints" : [  ]
												}

											}
, 											{
												"patchline" : 												{
													"source" : [ "obj-16", 0 ],
													"destination" : [ "obj-47", 1 ],
													"hidden" : 0,
													"midpoints" : [  ]
												}

											}
, 											{
												"patchline" : 												{
													"source" : [ "obj-47", 0 ],
													"destination" : [ "obj-49", 1 ],
													"hidden" : 0,
													"midpoints" : [  ]
												}

											}
, 											{
												"patchline" : 												{
													"source" : [ "obj-46", 0 ],
													"destination" : [ "obj-51", 1 ],
													"hidden" : 0,
													"midpoints" : [  ]
												}

											}
, 											{
												"patchline" : 												{
													"source" : [ "obj-47", 0 ],
													"destination" : [ "obj-49", 0 ],
													"hidden" : 0,
													"midpoints" : [  ]
												}

											}
, 											{
												"patchline" : 												{
													"source" : [ "obj-47", 0 ],
													"destination" : [ "obj-46", 0 ],
													"hidden" : 0,
													"midpoints" : [  ]
												}

											}
, 											{
												"patchline" : 												{
													"source" : [ "obj-46", 0 ],
													"destination" : [ "obj-52", 0 ],
													"hidden" : 0,
													"midpoints" : [  ]
												}

											}
, 											{
												"patchline" : 												{
													"source" : [ "obj-52", 0 ],
													"destination" : [ "obj-54", 1 ],
													"hidden" : 0,
													"midpoints" : [  ]
												}

											}
, 											{
												"patchline" : 												{
													"source" : [ "obj-56", 0 ],
													"destination" : [ "obj-60", 0 ],
													"hidden" : 0,
													"midpoints" : [  ]
												}

											}
, 											{
												"patchline" : 												{
													"source" : [ "obj-60", 0 ],
													"destination" : [ "obj-62", 1 ],
													"hidden" : 0,
													"midpoints" : [  ]
												}

											}
, 											{
												"patchline" : 												{
													"source" : [ "obj-60", 0 ],
													"destination" : [ "obj-62", 3 ],
													"hidden" : 0,
													"midpoints" : [  ]
												}

											}
, 											{
												"patchline" : 												{
													"source" : [ "obj-56", 0 ],
													"destination" : [ "obj-62", 0 ],
													"hidden" : 0,
													"midpoints" : [  ]
												}

											}
, 											{
												"patchline" : 												{
													"source" : [ "obj-62", 0 ],
													"destination" : [ "obj-58", 1 ],
													"hidden" : 0,
													"midpoints" : [  ]
												}

											}
 ]
									}
,
									"saved_object_attributes" : 									{
										"default_fontname" : "Arial",
										"default_fontsize" : 12.0,
										"fontname" : "Arial",
										"globalpatchername" : "",
										"default_fontface" : 0,
										"fontface" : 0,
										"fontsize" : 12.0
									}

								}

							}
, 							{
								"box" : 								{
									"maxclass" : "message",
									"text" : "60",
									"numinlets" : 2,
									"numoutlets" : 1,
									"patching_rect" : [ 190.0, 324.0, 50.0, 18.0 ],
									"outlettype" : [ "" ],
									"id" : "obj-12",
									"fontname" : "Arial",
									"fontsize" : 12.0
								}

							}
, 							{
								"box" : 								{
									"maxclass" : "newobj",
									"text" : "+",
									"numinlets" : 2,
									"numoutlets" : 1,
									"patching_rect" : [ 121.0, 275.0, 32.5, 20.0 ],
									"outlettype" : [ "int" ],
									"id" : "obj-40",
									"fontname" : "Arial",
									"fontsize" : 12.0
								}

							}
, 							{
								"box" : 								{
									"maxclass" : "message",
									"text" : "52",
									"numinlets" : 2,
									"numoutlets" : 1,
									"patching_rect" : [ 176.0, 203.0, 32.5, 18.0 ],
									"outlettype" : [ "" ],
									"id" : "obj-39",
									"fontname" : "Arial",
									"fontsize" : 12.0
								}

							}
, 							{
								"box" : 								{
									"maxclass" : "newobj",
									"text" : "loadmess 60",
									"numinlets" : 1,
									"numoutlets" : 1,
									"patching_rect" : [ 145.0, 177.0, 79.0, 20.0 ],
									"outlettype" : [ "" ],
									"id" : "obj-35",
									"fontname" : "Arial",
									"fontsize" : 12.0
								}

							}
, 							{
								"box" : 								{
									"maxclass" : "newobj",
									"text" : "int",
									"numinlets" : 2,
									"numoutlets" : 1,
									"patching_rect" : [ 144.0, 238.0, 32.5, 20.0 ],
									"outlettype" : [ "int" ],
									"id" : "obj-32",
									"fontname" : "Arial",
									"fontsize" : 12.0
								}

							}
, 							{
								"box" : 								{
									"maxclass" : "newobj",
									"text" : "fromsymbol",
									"numinlets" : 1,
									"numoutlets" : 1,
									"patching_rect" : [ 119.0, 100.0, 73.0, 20.0 ],
									"outlettype" : [ "" ],
									"id" : "obj-28",
									"fontname" : "Arial",
									"fontsize" : 12.0
								}

							}
, 							{
								"box" : 								{
									"maxclass" : "message",
									"text" : "64",
									"numinlets" : 2,
									"numoutlets" : 1,
									"patching_rect" : [ 50.0, 179.0, 50.0, 18.0 ],
									"outlettype" : [ "" ],
									"id" : "obj-27",
									"fontname" : "Arial",
									"fontsize" : 12.0
								}

							}
, 							{
								"box" : 								{
									"maxclass" : "newobj",
									"text" : "osc-route /next-state",
									"numinlets" : 1,
									"numoutlets" : 2,
									"patching_rect" : [ 119.0, 148.0, 120.0, 20.0 ],
									"outlettype" : [ "", "" ],
									"id" : "obj-25",
									"fontname" : "Arial",
									"fontsize" : 12.0
								}

							}
, 							{
								"box" : 								{
									"maxclass" : "inlet",
									"numinlets" : 0,
									"numoutlets" : 1,
									"patching_rect" : [ 119.0, 40.0, 25.0, 25.0 ],
									"outlettype" : [ "" ],
									"id" : "obj-14",
									"comment" : ""
								}

							}
, 							{
								"box" : 								{
									"maxclass" : "outlet",
									"numinlets" : 1,
									"numoutlets" : 0,
									"patching_rect" : [ 121.0, 402.0, 25.0, 25.0 ],
									"id" : "obj-18",
									"comment" : ""
								}

							}
 ],
						"lines" : [ 							{
								"patchline" : 								{
									"source" : [ "obj-40", 0 ],
									"destination" : [ "obj-18", 0 ],
									"hidden" : 0,
									"midpoints" : [  ]
								}

							}
, 							{
								"patchline" : 								{
									"source" : [ "obj-14", 0 ],
									"destination" : [ "obj-28", 0 ],
									"hidden" : 0,
									"midpoints" : [  ]
								}

							}
, 							{
								"patchline" : 								{
									"source" : [ "obj-32", 0 ],
									"destination" : [ "obj-12", 1 ],
									"hidden" : 0,
									"midpoints" : [  ]
								}

							}
, 							{
								"patchline" : 								{
									"source" : [ "obj-28", 0 ],
									"destination" : [ "obj-25", 0 ],
									"hidden" : 0,
									"midpoints" : [  ]
								}

							}
, 							{
								"patchline" : 								{
									"source" : [ "obj-39", 0 ],
									"destination" : [ "obj-32", 0 ],
									"hidden" : 0,
									"midpoints" : [  ]
								}

							}
, 							{
								"patchline" : 								{
									"source" : [ "obj-32", 0 ],
									"destination" : [ "obj-40", 1 ],
									"hidden" : 0,
									"midpoints" : [  ]
								}

							}
, 							{
								"patchline" : 								{
									"source" : [ "obj-25", 0 ],
									"destination" : [ "obj-40", 0 ],
									"hidden" : 0,
									"midpoints" : [  ]
								}

							}
, 							{
								"patchline" : 								{
									"source" : [ "obj-40", 0 ],
									"destination" : [ "obj-32", 0 ],
									"hidden" : 0,
									"midpoints" : [ 130.5, 304.0, 190.0, 304.0, 190.0, 234.0, 153.5, 234.0 ]
								}

							}
, 							{
								"patchline" : 								{
									"source" : [ "obj-25", 0 ],
									"destination" : [ "obj-27", 1 ],
									"hidden" : 0,
									"midpoints" : [  ]
								}

							}
, 							{
								"patchline" : 								{
									"source" : [ "obj-35", 0 ],
									"destination" : [ "obj-32", 0 ],
									"hidden" : 0,
									"midpoints" : [  ]
								}

							}
, 							{
								"patchline" : 								{
									"source" : [ "obj-27", 0 ],
									"destination" : [ "obj-40", 0 ],
									"hidden" : 0,
									"midpoints" : [  ]
								}

							}
 ]
					}
,
					"saved_object_attributes" : 					{
						"default_fontname" : "Arial",
						"default_fontsize" : 12.0,
						"fontname" : "Arial",
						"globalpatchername" : "",
						"default_fontface" : 0,
						"fontface" : 0,
						"fontsize" : 12.0
					}

				}

			}
, 			{
				"box" : 				{
					"maxclass" : "newobj",
					"text" : "loadbang",
					"numinlets" : 1,
					"numoutlets" : 1,
					"patching_rect" : [ 55.0, 271.0, 60.0, 20.0 ],
					"outlettype" : [ "bang" ],
					"id" : "obj-7",
					"fontname" : "Arial",
					"fontsize" : 12.0
				}

			}
, 			{
				"box" : 				{
					"maxclass" : "button",
					"numinlets" : 1,
					"numoutlets" : 1,
					"patching_rect" : [ 28.0, 272.0, 20.0, 20.0 ],
					"outlettype" : [ "bang" ],
					"id" : "obj-55"
				}

			}
, 			{
				"box" : 				{
					"maxclass" : "message",
					"text" : "500",
					"numinlets" : 2,
					"numoutlets" : 1,
					"patching_rect" : [ 55.0, 309.0, 32.5, 18.0 ],
					"outlettype" : [ "" ],
					"id" : "obj-53",
					"fontname" : "Arial",
					"fontsize" : 12.0
				}

			}
, 			{
				"box" : 				{
					"maxclass" : "newobj",
					"text" : "delay",
					"numinlets" : 2,
					"numoutlets" : 1,
					"patching_rect" : [ 27.0, 362.0, 39.0, 20.0 ],
					"outlettype" : [ "bang" ],
					"id" : "obj-51",
					"fontname" : "Arial",
					"fontsize" : 12.0
				}

			}
, 			{
				"box" : 				{
					"maxclass" : "ezdac~",
					"numinlets" : 2,
					"numoutlets" : 0,
					"patching_rect" : [ 389.0, 515.0, 45.0, 45.0 ],
					"id" : "obj-46"
				}

			}
, 			{
				"box" : 				{
					"maxclass" : "newobj",
					"text" : "mtof",
					"numinlets" : 1,
					"numoutlets" : 1,
					"patching_rect" : [ 386.0, 351.0, 34.0, 20.0 ],
					"outlettype" : [ "" ],
					"id" : "obj-45",
					"fontname" : "Arial",
					"fontsize" : 12.0
				}

			}
, 			{
				"box" : 				{
					"maxclass" : "newobj",
					"text" : "sinewave~",
					"numinlets" : 1,
					"numoutlets" : 1,
					"patching_rect" : [ 385.0, 386.0, 68.0, 20.0 ],
					"outlettype" : [ "signal" ],
					"id" : "obj-44",
					"fontname" : "Arial",
					"fontsize" : 12.0
				}

			}
, 			{
				"box" : 				{
					"maxclass" : "kslider",
					"numinlets" : 2,
					"numoutlets" : 2,
					"patching_rect" : [ 264.0, 270.0, 336.0, 53.0 ],
					"outlettype" : [ "int", "int" ],
					"id" : "obj-43"
				}

			}
, 			{
				"box" : 				{
					"maxclass" : "message",
					"text" : "825",
					"numinlets" : 2,
					"numoutlets" : 1,
					"patching_rect" : [ 117.0, 267.0, 50.0, 18.0 ],
					"outlettype" : [ "" ],
					"id" : "obj-42",
					"fontname" : "Arial",
					"fontsize" : 12.0
				}

			}
, 			{
				"box" : 				{
					"maxclass" : "comment",
					"text" : "midde c = 60",
					"numinlets" : 1,
					"numoutlets" : 0,
					"patching_rect" : [ 327.0, 756.0, 150.0, 20.0 ],
					"id" : "obj-24",
					"fontname" : "Arial",
					"fontsize" : 12.0
				}

			}
, 			{
				"box" : 				{
					"maxclass" : "message",
					"text" : "update 60 60 1 61 61 1",
					"numinlets" : 2,
					"numoutlets" : 1,
					"patching_rect" : [ 89.0, 53.0, 134.0, 18.0 ],
					"outlettype" : [ "" ],
					"id" : "obj-22",
					"fontname" : "Arial",
					"fontsize" : 12.0
				}

			}
, 			{
				"box" : 				{
					"maxclass" : "message",
					"text" : "update 53 1 54 1",
					"numinlets" : 2,
					"numoutlets" : 1,
					"patching_rect" : [ 49.0, 31.0, 101.0, 18.0 ],
					"outlettype" : [ "" ],
					"id" : "obj-21",
					"fontname" : "Arial",
					"fontsize" : 12.0
				}

			}
, 			{
				"box" : 				{
					"maxclass" : "comment",
					"text" : "Note: \nErrors listed in maxwindow, are actually on a line 1 higher than stated.  Ie erroe on 12 = a error on 13",
					"linecount" : 5,
					"numinlets" : 1,
					"numoutlets" : 0,
					"patching_rect" : [ 327.0, 656.0, 186.0, 75.0 ],
					"id" : "obj-19",
					"fontname" : "Arial",
					"fontsize" : 12.0
				}

			}
, 			{
				"box" : 				{
					"maxclass" : "message",
					"text" : "update 52 1 53 1",
					"numinlets" : 2,
					"numoutlets" : 1,
					"patching_rect" : [ 4.0, 9.0, 101.0, 18.0 ],
					"outlettype" : [ "" ],
					"id" : "obj-16",
					"fontname" : "Arial",
					"fontsize" : 12.0
				}

			}
, 			{
				"box" : 				{
					"maxclass" : "comment",
					"text" : "this.getPolicy = function(state) {\n\treturn (\"/next-state \" + this.QLearner.getPolicy(state));\n};\n\nthis.getAction = function(state) {\n\treturn (\"/next-state \" + this.QLearner.getAction(state));\n};\n\nfunction update(state, action, nextState, reward) {\n\tthis.QLearner.update(state, action, nextState, reward);\n};",
					"linecount" : 11,
					"numinlets" : 1,
					"numoutlets" : 0,
					"patching_rect" : [ 3.0, 575.0, 313.0, 158.0 ],
					"id" : "obj-9",
					"fontname" : "Arial",
					"fontsize" : 12.0
				}

			}
, 			{
				"box" : 				{
					"maxclass" : "message",
					"text" : "test state action",
					"numinlets" : 2,
					"numoutlets" : 1,
					"patching_rect" : [ 1239.0, 154.0, 95.0, 18.0 ],
					"outlettype" : [ "" ],
					"id" : "obj-4",
					"fontname" : "Arial",
					"fontsize" : 12.0
				}

			}
, 			{
				"box" : 				{
					"maxclass" : "message",
					"text" : "setQValue 10 20 2",
					"numinlets" : 2,
					"numoutlets" : 1,
					"patching_rect" : [ 1225.0, 177.0, 109.0, 18.0 ],
					"outlettype" : [ "" ],
					"id" : "obj-2",
					"fontname" : "Arial",
					"fontsize" : 12.0
				}

			}
, 			{
				"box" : 				{
					"maxclass" : "message",
					"text" : "compile",
					"numinlets" : 2,
					"numoutlets" : 1,
					"patching_rect" : [ 1145.0, 6.0, 52.0, 18.0 ],
					"outlettype" : [ "" ],
					"id" : "obj-11",
					"fontname" : "Arial",
					"fontsize" : 12.0
				}

			}
, 			{
				"box" : 				{
					"maxclass" : "message",
					"text" : "getQValue 10 20",
					"numinlets" : 2,
					"numoutlets" : 1,
					"patching_rect" : [ 1230.0, 200.0, 100.0, 18.0 ],
					"outlettype" : [ "" ],
					"id" : "obj-6",
					"fontname" : "Arial",
					"fontsize" : 12.0
				}

			}
, 			{
				"box" : 				{
					"maxclass" : "newobj",
					"text" : "loadmess autowatch 1",
					"numinlets" : 1,
					"numoutlets" : 1,
					"patching_rect" : [ 1205.0, 1.0, 130.0, 20.0 ],
					"outlettype" : [ "" ],
					"id" : "obj-17",
					"fontname" : "Arial",
					"fontsize" : 12.0
				}

			}
, 			{
				"box" : 				{
					"maxclass" : "message",
					"text" : "cantfindme",
					"numinlets" : 2,
					"numoutlets" : 1,
					"patching_rect" : [ 1260.0, 133.0, 69.0, 18.0 ],
					"outlettype" : [ "" ],
					"id" : "obj-15",
					"fontname" : "Arial",
					"fontsize" : 12.0
				}

			}
, 			{
				"box" : 				{
					"maxclass" : "message",
					"text" : "output me",
					"numinlets" : 2,
					"numoutlets" : 1,
					"patching_rect" : [ 1268.0, 109.0, 64.0, 18.0 ],
					"outlettype" : [ "" ],
					"id" : "obj-13",
					"fontname" : "Arial",
					"fontsize" : 12.0
				}

			}
, 			{
				"box" : 				{
					"maxclass" : "flonum",
					"numinlets" : 1,
					"numoutlets" : 2,
					"patching_rect" : [ 1279.0, 56.0, 50.0, 20.0 ],
					"outlettype" : [ "float", "bang" ],
					"id" : "obj-10",
					"fontname" : "Arial",
					"fontsize" : 12.0
				}

			}
, 			{
				"box" : 				{
					"maxclass" : "number",
					"numinlets" : 1,
					"numoutlets" : 2,
					"patching_rect" : [ 1279.0, 82.0, 50.0, 20.0 ],
					"outlettype" : [ "int", "bang" ],
					"id" : "obj-8",
					"fontname" : "Arial",
					"fontsize" : 12.0
				}

			}
, 			{
				"box" : 				{
					"maxclass" : "message",
					"text" : "/action \"60\" \"67\" \"65\"",
					"numinlets" : 2,
					"numoutlets" : 1,
					"patching_rect" : [ 517.0, 227.0, 207.0, 18.0 ],
					"outlettype" : [ "" ],
					"id" : "obj-5",
					"fontname" : "Arial",
					"fontsize" : 12.0
				}

			}
, 			{
				"box" : 				{
					"maxclass" : "message",
					"text" : "foo 1 2 3",
					"numinlets" : 2,
					"numoutlets" : 1,
					"patching_rect" : [ 1270.0, 35.0, 57.0, 18.0 ],
					"outlettype" : [ "" ],
					"id" : "obj-3",
					"fontname" : "Arial",
					"fontsize" : 12.0
				}

			}
, 			{
				"box" : 				{
					"maxclass" : "newobj",
					"text" : "js musicmachine",
					"numinlets" : 1,
					"numoutlets" : 1,
					"patching_rect" : [ 264.0, 186.0, 99.0, 20.0 ],
					"outlettype" : [ "" ],
					"id" : "obj-1",
					"fontname" : "Arial",
					"fontsize" : 12.0
				}

			}
 ],
		"lines" : [ 			{
				"patchline" : 				{
					"source" : [ "obj-1", 0 ],
					"destination" : [ "obj-112", 0 ],
					"hidden" : 0,
					"midpoints" : [  ]
				}

			}
, 			{
				"patchline" : 				{
					"source" : [ "obj-43", 0 ],
					"destination" : [ "obj-30", 0 ],
					"hidden" : 0,
					"midpoints" : [  ]
				}

			}
, 			{
				"patchline" : 				{
					"source" : [ "obj-18", 0 ],
					"destination" : [ "obj-25", 0 ],
					"hidden" : 0,
					"midpoints" : [  ]
				}

			}
, 			{
				"patchline" : 				{
					"source" : [ "obj-25", 0 ],
					"destination" : [ "obj-46", 1 ],
					"hidden" : 0,
					"midpoints" : [  ]
				}

			}
, 			{
				"patchline" : 				{
					"source" : [ "obj-25", 0 ],
					"destination" : [ "obj-46", 0 ],
					"hidden" : 0,
					"midpoints" : [  ]
				}

			}
, 			{
				"patchline" : 				{
					"source" : [ "obj-30", 0 ],
					"destination" : [ "obj-18", 1 ],
					"hidden" : 0,
					"midpoints" : [  ]
				}

			}
, 			{
				"patchline" : 				{
					"source" : [ "obj-44", 0 ],
					"destination" : [ "obj-18", 0 ],
					"hidden" : 0,
					"midpoints" : [  ]
				}

			}
, 			{
				"patchline" : 				{
					"source" : [ "obj-43", 0 ],
					"destination" : [ "obj-14", 1 ],
					"hidden" : 0,
					"midpoints" : [  ]
				}

			}
, 			{
				"patchline" : 				{
					"source" : [ "obj-55", 0 ],
					"destination" : [ "obj-51", 0 ],
					"hidden" : 0,
					"midpoints" : [  ]
				}

			}
, 			{
				"patchline" : 				{
					"source" : [ "obj-53", 0 ],
					"destination" : [ "obj-51", 1 ],
					"hidden" : 0,
					"midpoints" : [  ]
				}

			}
, 			{
				"patchline" : 				{
					"source" : [ "obj-45", 0 ],
					"destination" : [ "obj-44", 0 ],
					"hidden" : 0,
					"midpoints" : [  ]
				}

			}
, 			{
				"patchline" : 				{
					"source" : [ "obj-43", 0 ],
					"destination" : [ "obj-45", 0 ],
					"hidden" : 0,
					"midpoints" : [  ]
				}

			}
, 			{
				"patchline" : 				{
					"source" : [ "obj-22", 0 ],
					"destination" : [ "obj-1", 0 ],
					"hidden" : 0,
					"midpoints" : [  ]
				}

			}
, 			{
				"patchline" : 				{
					"source" : [ "obj-21", 0 ],
					"destination" : [ "obj-1", 0 ],
					"hidden" : 0,
					"midpoints" : [  ]
				}

			}
, 			{
				"patchline" : 				{
					"source" : [ "obj-16", 0 ],
					"destination" : [ "obj-1", 0 ],
					"hidden" : 0,
					"midpoints" : [  ]
				}

			}
, 			{
				"patchline" : 				{
					"source" : [ "obj-4", 0 ],
					"destination" : [ "obj-1", 0 ],
					"hidden" : 0,
					"midpoints" : [  ]
				}

			}
, 			{
				"patchline" : 				{
					"source" : [ "obj-11", 0 ],
					"destination" : [ "obj-1", 0 ],
					"hidden" : 0,
					"midpoints" : [  ]
				}

			}
, 			{
				"patchline" : 				{
					"source" : [ "obj-17", 0 ],
					"destination" : [ "obj-1", 0 ],
					"hidden" : 0,
					"midpoints" : [  ]
				}

			}
, 			{
				"patchline" : 				{
					"source" : [ "obj-6", 0 ],
					"destination" : [ "obj-1", 0 ],
					"hidden" : 0,
					"midpoints" : [  ]
				}

			}
, 			{
				"patchline" : 				{
					"source" : [ "obj-3", 0 ],
					"destination" : [ "obj-1", 0 ],
					"hidden" : 0,
					"midpoints" : [  ]
				}

			}
, 			{
				"patchline" : 				{
					"source" : [ "obj-1", 0 ],
					"destination" : [ "obj-5", 1 ],
					"hidden" : 0,
					"midpoints" : [  ]
				}

			}
, 			{
				"patchline" : 				{
					"source" : [ "obj-10", 0 ],
					"destination" : [ "obj-1", 0 ],
					"hidden" : 0,
					"midpoints" : [  ]
				}

			}
, 			{
				"patchline" : 				{
					"source" : [ "obj-8", 0 ],
					"destination" : [ "obj-1", 0 ],
					"hidden" : 0,
					"midpoints" : [  ]
				}

			}
, 			{
				"patchline" : 				{
					"source" : [ "obj-13", 0 ],
					"destination" : [ "obj-1", 0 ],
					"hidden" : 0,
					"midpoints" : [  ]
				}

			}
, 			{
				"patchline" : 				{
					"source" : [ "obj-15", 0 ],
					"destination" : [ "obj-1", 0 ],
					"hidden" : 0,
					"midpoints" : [  ]
				}

			}
, 			{
				"patchline" : 				{
					"source" : [ "obj-2", 0 ],
					"destination" : [ "obj-1", 0 ],
					"hidden" : 0,
					"midpoints" : [  ]
				}

			}
, 			{
				"patchline" : 				{
					"source" : [ "obj-7", 0 ],
					"destination" : [ "obj-53", 0 ],
					"hidden" : 0,
					"midpoints" : [  ]
				}

			}
, 			{
				"patchline" : 				{
					"source" : [ "obj-112", 0 ],
					"destination" : [ "obj-43", 0 ],
					"hidden" : 0,
					"midpoints" : [  ]
				}

			}
, 			{
				"patchline" : 				{
					"source" : [ "obj-29", 0 ],
					"destination" : [ "obj-1", 0 ],
					"hidden" : 0,
					"midpoints" : [  ]
				}

			}
, 			{
				"patchline" : 				{
					"source" : [ "obj-27", 0 ],
					"destination" : [ "obj-1", 0 ],
					"hidden" : 0,
					"midpoints" : [  ]
				}

			}
 ]
	}

}
